# xmcd
#
# Track frame offsets:
#	150
#	21978
#	49713
#	69295
#	90553
#	118380
#	144040
#	167740
#	185825
#	216590
#	241280
#	259563
#
# Disc length: 3796 seconds
#
# Revision: 2
# Processed by: cddbd v1.5.2PL0 Copyright (c) Steve Scherf et al.
# Submitted via: EZCDAudioConverter 8.0.2.1
#
DISCID=ab0ed20c
DTITLE=Various Artist - 7000 Đêm Góp Lại
DYEAR=2001
DGENRE=blues
TTITLE0=Hương Lan - 7000 Đêm Góp Lại
TTITLE1=Thanh Tuyền - Hạn Tha La
TTITLE2=Hương Lan, Duy Quang - Trúc đào
TTITLE3=Kim Anh - Ngõ hồn qua đêm
TTITLE4=Carol Kim - Đừng trách gì nhau
TTITLE5=Ánh Lệ - Chuyện tình hai sắc hoa Tigôn
TTITLE6=Duy Quang - Đời thông hai mộ
TTITLE7=Hải Lý - Men rượu Saké
TTITLE8=Thanh Tuyền - Hàn Mặc Tử
TTITLE9=Như Mai, Tuấn Anh - Gitoj lệ ngnaf sau
TTITLE10=Lưu Hồng - Tango dĩ vãng
TTITLE11=Kim Anh - Nếu vắng anh
EXTD=
EXTT0=
EXTT1=
EXTT2=
EXTT3=
EXTT4=
EXTT5=
EXTT6=
EXTT7=
EXTT8=
EXTT9=
EXTT10=
EXTT11=
PLAYORDER=
